# xmcd CD database file
# Copyright (C) 1996 Ti Kan
#
# Track frame offsets:
# 	150
# 	21743
# 	66408
# 	83290
# 	103953
# 	130033
# 	152978
# 	177358
# 	201418
# 	221353
# 	244450
# 	267378
# 	290945
# 	324590
#
# Disc length: 4607 seconds
#
# Revision: 1
# Processed by: cddbd v1.4b41PL1 Copyright (c) Steve Scherf et al.
# Submitted via: DiscPlay 3.4.1
#
DISCID=e111fd0e
DTITLE=Various Artist - Greatest Gospel Hits Vol 1
DYEAR=1900
DGENRE=
TTITLE0=Jesus is Mine
TTITLE1=Barnyard
TTITLE2=Thank God for Mama
TTITLE3=Just a Rehearsal
TTITLE4=Peace be Still
TTITLE5=I'm Just a Nobody
TTITLE6=Touch Me Lord Jesus
TTITLE7=Better Than Blessed
TTITLE8=Look At the Blessings
TTITLE9=Peanut Butter and Jelly
TTITLE10=When We See Jesus
TTITLE11=Saints Hold On
TTITLE12=Teddy Bear
TTITLE13=Nobody's Child
EXTD=
EXTT0=
EXTT1=
EXTT2=
EXTT3=
EXTT4=
EXTT5=
EXTT6=
EXTT7=
EXTT8=
EXTT9=
EXTT10=
EXTT11=
EXTT12=
EXTT13=
PLAYORDER=
